<?xml version="1.0" encoding="utf-8" standalone="no"?>
<!DOCTYPE svg PUBLIC "-//W3C//DTD SVG 1.1//EN"
  "http://www.w3.org/Graphics/SVG/1.1/DTD/svg11.dtd">
<!-- Created with matplotlib (http://matplotlib.org/) -->
<svg height="320.380017pt" version="1.1" viewBox="0 0 421.129319 320.380017" width="421.129319pt" xmlns="http://www.w3.org/2000/svg" xmlns:xlink="http://www.w3.org/1999/xlink">
 <defs>
  <style type="text/css">
*{stroke-linecap:butt;stroke-linejoin:round;}
  </style>
 </defs>
 <g id="figure_1">
  <g id="patch_1">
   <path d="M 0 320.380017 
L 421.129319 320.380017 
L 421.129319 0 
L 0 0 
z
" style="fill:#ffffff;"/>
  </g>
  <g id="axes_1">
   <g id="patch_2">
    <path d="M 50.809319 279.312 
L 407.929319 279.312 
L 407.929319 13.2 
L 50.809319 13.2 
z
" style="fill:#eaeaf2;"/>
   </g>
   <g id="matplotlib.axis_1">
    <g id="xtick_1">
     <g id="line2d_1">
      <path clip-path="url(#p67bf0da7aa)" d="M 67.042046 279.312 
L 67.042046 13.2 
" style="fill:none;stroke:#ffffff;stroke-linecap:round;"/>
     </g>
     <g id="text_1">
      <!-- $10^{1}$ -->
      <defs>
       <path d="M 26.59375 63.796875 
C 26.59375 65.890625 26.5 66 25.09375 66 
C 21.203125 61.359375 15.296875 59.890625 9.703125 59.6875 
C 9.40625 59.6875 8.90625 59.6875 8.796875 59.5 
C 8.703125 59.296875 8.703125 59.09375 8.703125 57 
C 11.796875 57 17 57.59375 21 59.984375 
L 21 7.296875 
C 21 3.796875 20.796875 2.59375 12.203125 2.59375 
L 9.203125 2.59375 
L 9.203125 0 
C 14 0.09375 19 0.1875 23.796875 0.1875 
C 28.59375 0.1875 33.59375 0.09375 38.40625 0 
L 38.40625 2.59375 
L 35.40625 2.59375 
C 26.796875 2.59375 26.59375 3.6875 26.59375 7.296875 
z
" id="CMR17-49"/>
       <path d="M 42 31.84375 
C 42 37.96875 41.90625 48.421875 37.703125 56.453125 
C 34 63.484375 28.09375 66 22.90625 66 
C 18.09375 66 12 63.78125 8.203125 56.5625 
C 4.203125 49.015625 3.796875 39.671875 3.796875 31.84375 
C 3.796875 26.109375 3.90625 17.375 7 9.734375 
C 11.296875 -0.609375 19 -2 22.90625 -2 
C 27.5 -2 34.5 -0.109375 38.59375 9.4375 
C 41.59375 16.375 42 24.5 42 31.84375 
z
M 22.90625 -0.40625 
C 16.5 -0.40625 12.703125 5.125 11.296875 12.75 
C 10.203125 18.6875 10.203125 27.328125 10.203125 32.953125 
C 10.203125 40.6875 10.203125 47.109375 11.5 53.234375 
C 13.40625 61.78125 19 64.390625 22.90625 64.390625 
C 27 64.390625 32.296875 61.671875 34.203125 53.4375 
C 35.5 47.71875 35.59375 40.984375 35.59375 32.953125 
C 35.59375 26.421875 35.59375 18.375 34.40625 12.453125 
C 32.296875 1.5 26.40625 -0.40625 22.90625 -0.40625 
z
" id="CMR17-48"/>
      </defs>
      <g style="fill:#262626;" transform="translate(59.37841 296.422347)scale(0.11 -0.11)">
       <use transform="scale(0.996264)" xlink:href="#CMR17-49"/>
       <use transform="translate(45.690477 0)scale(0.996264)" xlink:href="#CMR17-48"/>
       <use transform="translate(91.380954 36.153639)scale(0.697382)" xlink:href="#CMR17-49"/>
      </g>
     </g>
    </g>
    <g id="xtick_2">
     <g id="line2d_2">
      <path clip-path="url(#p67bf0da7aa)" d="M 175.260228 279.312 
L 175.260228 13.2 
" style="fill:none;stroke:#ffffff;stroke-linecap:round;"/>
     </g>
     <g id="text_2">
      <!-- $10^{2}$ -->
      <defs>
       <path d="M 41.703125 15.46875 
L 39.90625 15.46875 
C 38.90625 8.390625 38.09375 7.1875 37.703125 6.59375 
C 37.203125 5.796875 30 5.796875 28.59375 5.796875 
L 9.40625 5.796875 
C 13 9.6875 20 16.765625 28.5 24.9375 
C 34.59375 30.71875 41.703125 37.5 41.703125 47.390625 
C 41.703125 59.1875 32.296875 66 21.796875 66 
C 10.796875 66 4.09375 56.296875 4.09375 47.296875 
C 4.09375 43.390625 7 42.890625 8.203125 42.890625 
C 9.203125 42.890625 12.203125 43.484375 12.203125 46.984375 
C 12.203125 50.09375 9.59375 51 8.203125 51 
C 7.59375 51 7 50.890625 6.59375 50.6875 
C 8.5 59.1875 14.296875 63.390625 20.40625 63.390625 
C 29.09375 63.390625 34.796875 56.5 34.796875 47.390625 
C 34.796875 38.703125 29.703125 31.21875 24 24.734375 
L 4.09375 2.296875 
L 4.09375 0 
L 39.296875 0 
z
" id="CMR17-50"/>
      </defs>
      <g style="fill:#262626;" transform="translate(167.596592 296.422347)scale(0.11 -0.11)">
       <use transform="scale(0.996264)" xlink:href="#CMR17-49"/>
       <use transform="translate(45.690477 0)scale(0.996264)" xlink:href="#CMR17-48"/>
       <use transform="translate(91.380954 36.153639)scale(0.697382)" xlink:href="#CMR17-50"/>
      </g>
     </g>
    </g>
    <g id="xtick_3">
     <g id="line2d_3">
      <path clip-path="url(#p67bf0da7aa)" d="M 283.47841 279.312 
L 283.47841 13.2 
" style="fill:none;stroke:#ffffff;stroke-linecap:round;"/>
     </g>
     <g id="text_3">
      <!-- $10^{3}$ -->
      <defs>
       <path d="M 22.09375 34 
C 31 34 34.90625 26.140625 34.90625 17.09375 
C 34.90625 5.03125 28.5 0.390625 22.703125 0.390625 
C 17.40625 0.390625 8.796875 3.015625 6.09375 10.796875 
C 6.59375 10.59375 7.09375 10.59375 7.59375 10.59375 
C 10 10.59375 11.796875 12.1875 11.796875 14.796875 
C 11.796875 17.6875 9.59375 19 7.59375 19 
C 5.90625 19 3.296875 18.1875 3.296875 14.484375 
C 3.296875 5.234375 12.296875 -2 22.90625 -2 
C 34 -2 42.5 6.75 42.5 16.984375 
C 42.5 26.84375 34.5 34 25 35.09375 
C 32.59375 36.671875 39.90625 43.375 39.90625 52.390625 
C 39.90625 60.25 32 66 23 66 
C 13.90625 66 5.90625 60.34375 5.90625 52.296875 
C 5.90625 48.796875 8.5 48.1875 9.796875 48.1875 
C 11.90625 48.1875 13.703125 49.484375 13.703125 52.09375 
C 13.703125 54.6875 11.90625 56 9.796875 56 
C 9.40625 56 8.90625 56 8.5 55.796875 
C 11.40625 62.484375 19.296875 63.6875 22.796875 63.6875 
C 26.296875 63.6875 32.90625 61.96875 32.90625 52.296875 
C 32.90625 49.484375 32.5 44.546875 29.09375 40.21875 
C 26.09375 36.390625 22.703125 36.1875 19.40625 35.890625 
C 18.90625 35.890625 16.59375 35.6875 16.203125 35.6875 
C 15.5 35.59375 15.09375 35.5 15.09375 34.796875 
C 15.09375 34.09375 15.203125 34 17.203125 34 
z
" id="CMR17-51"/>
      </defs>
      <g style="fill:#262626;" transform="translate(275.814773 296.422347)scale(0.11 -0.11)">
       <use transform="scale(0.996264)" xlink:href="#CMR17-49"/>
       <use transform="translate(45.690477 0)scale(0.996264)" xlink:href="#CMR17-48"/>
       <use transform="translate(91.380954 36.153639)scale(0.697382)" xlink:href="#CMR17-51"/>
      </g>
     </g>
    </g>
    <g id="xtick_4">
     <g id="line2d_4">
      <path clip-path="url(#p67bf0da7aa)" d="M 391.696592 279.312 
L 391.696592 13.2 
" style="fill:none;stroke:#ffffff;stroke-linecap:round;"/>
     </g>
     <g id="text_4">
      <!-- $10^{4}$ -->
      <defs>
       <path d="M 33.59375 64.796875 
C 33.59375 66.890625 33.5 67 31.703125 67 
L 2 19.59375 
L 2 17 
L 27.796875 17 
L 27.796875 7.1875 
C 27.796875 3.59375 27.59375 2.59375 20.59375 2.59375 
L 18.703125 2.59375 
L 18.703125 0 
C 21.90625 0.1875 27.296875 0.1875 30.703125 0.1875 
C 34.09375 0.1875 39.5 0.1875 42.703125 0 
L 42.703125 2.59375 
L 40.796875 2.59375 
C 33.796875 2.59375 33.59375 3.59375 33.59375 7.1875 
L 33.59375 17 
L 43.796875 17 
L 43.796875 19.59375 
L 33.59375 19.59375 
z
M 28.09375 58.171875 
L 28.09375 19.59375 
L 4 19.59375 
z
" id="CMR17-52"/>
      </defs>
      <g style="fill:#262626;" transform="translate(384.032955 296.422347)scale(0.11 -0.11)">
       <use transform="scale(0.996264)" xlink:href="#CMR17-49"/>
       <use transform="translate(45.690477 0)scale(0.996264)" xlink:href="#CMR17-48"/>
       <use transform="translate(91.380954 36.153639)scale(0.697382)" xlink:href="#CMR17-52"/>
      </g>
     </g>
    </g>
    <g id="xtick_5"/>
    <g id="xtick_6"/>
    <g id="xtick_7"/>
    <g id="xtick_8"/>
    <g id="xtick_9"/>
    <g id="xtick_10"/>
    <g id="xtick_11"/>
    <g id="xtick_12"/>
    <g id="xtick_13"/>
    <g id="xtick_14"/>
    <g id="xtick_15"/>
    <g id="xtick_16"/>
    <g id="xtick_17"/>
    <g id="xtick_18"/>
    <g id="xtick_19"/>
    <g id="xtick_20"/>
    <g id="xtick_21"/>
    <g id="xtick_22"/>
    <g id="xtick_23"/>
    <g id="xtick_24"/>
    <g id="xtick_25"/>
    <g id="xtick_26"/>
    <g id="xtick_27"/>
    <g id="xtick_28"/>
    <g id="xtick_29"/>
    <g id="xtick_30"/>
    <g id="text_5">
     <!-- budget -->
     <defs>
      <path d="M 14.90625 69 
L 7.5 69 
L 7.5 -0.203125 
L 15.09375 -0.203125 
L 15.09375 4.296875 
C 18.90625 0.59375 23.5 -1 27.59375 -1 
C 37.203125 -1 45 8.734375 45 21.59375 
C 45 33.328125 39 44 30.09375 44 
C 23.796875 44 18.203125 41.390625 14.90625 38.6875 
z
M 15.09375 32.734375 
C 17.296875 35.5625 20.40625 37.890625 24.796875 37.890625 
C 30.703125 37.890625 37.40625 33.53125 37.40625 21.59375 
C 37.40625 8.84375 29.40625 5.09375 23.90625 5.09375 
C 21.90625 5.09375 19.796875 5.59375 17.796875 7.3125 
C 15.09375 9.75 15.09375 11.265625 15.09375 12.6875 
z
" id="CMSS17-98"/>
      <path d="M 40.90625 43 
L 33.296875 43 
L 33.296875 15.25 
C 33.296875 7.8125 27.90625 4.796875 22.203125 4.796875 
C 15.59375 4.796875 15 7 15 11.125 
L 15 43 
L 7.40625 43 
L 7.40625 10.625 
C 7.40625 2.796875 10.09375 -1 17 -1 
C 20.40625 -1 28.09375 -0.203125 33.5 4.796875 
L 33.5 -0.203125 
L 40.90625 -0.203125 
z
" id="CMSS17-117"/>
      <path d="M 40.796875 69 
L 33.40625 69 
L 33.40625 38.984375 
C 30.296875 41.59375 25.203125 44 19.59375 44 
C 10.5 44 3.296875 34.046875 3.296875 21.484375 
C 3.296875 8.9375 10.40625 -1 19.296875 -1 
C 26.203125 -1 30.796875 2.6875 33.203125 4.796875 
L 33.203125 -0.203125 
L 40.796875 -0.203125 
z
M 33.203125 13.296875 
C 33.203125 11.875 33.203125 10.359375 30.09375 7.625 
C 28.09375 5.90625 25.703125 5.09375 23.40625 5.09375 
C 18 5.09375 10.90625 9.140625 10.90625 21.390625 
C 10.90625 34.140625 18.90625 37.890625 24.40625 37.890625 
C 28.09375 37.890625 31.09375 36.0625 33.203125 33.03125 
z
" id="CMSS17-100"/>
      <path d="M 44.5 44 
C 38.796875 43.890625 33.90625 42.796875 29.90625 40.890625 
C 26.59375 43.484375 23.203125 44 20.90625 44 
C 12.203125 44 5.59375 36.8125 5.59375 28.5 
C 5.59375 23.140625 8.59375 19.09375 8.796875 18.890625 
C 7 16.390625 6 13.6875 6 10.6875 
C 6 7.1875 7.40625 4.6875 8.5 3.296875 
C 3.296875 0.09375 2.59375 -4.8125 2.59375 -6.703125 
C 2.59375 -14 11.703125 -20 23.40625 -20 
C 35.203125 -20 44.296875 -14 44.296875 -6.609375 
C 44.296875 7.1875 29 7.296875 24.796875 7.296875 
L 16.703125 7.296875 
C 15.203125 7.296875 11.203125 7.296875 11.203125 12.390625 
C 11.203125 14.390625 12.09375 15.6875 12.203125 15.796875 
C 13.703125 14.6875 16.796875 13 20.90625 13 
C 29.203125 13 36.09375 19.984375 36.09375 28.5 
C 36.09375 33.25 33.90625 36.703125 33 37.890625 
L 33.296875 37.890625 
C 33.59375 37.890625 37.796875 38.1875 39.296875 38.1875 
C 42.5 38.1875 42.796875 38.09375 45.59375 37.796875 
z
M 20.90625 18.5 
C 17.5 18.5 12.703125 20.578125 12.703125 28.5 
C 12.703125 37.109375 18.203125 38.484375 20.796875 38.484375 
C 24.203125 38.484375 29 36.40625 29 28.5 
C 29 19.875 23.5 18.5 20.90625 18.5 
z
M 24.703125 0 
C 27.09375 0 37.203125 0 37.203125 -6.8125 
C 37.203125 -11.109375 31 -14.5 23.5 -14.5 
C 15.90625 -14.5 9.703125 -11.203125 9.703125 -6.703125 
C 9.703125 -6.203125 9.703125 0 16.59375 0 
z
" id="CMSS17-103"/>
      <path d="M 39.09375 21.484375 
C 39.09375 24.796875 38.90625 31.265625 35.703125 36.671875 
C 32.203125 42.390625 26.5 44 22.203125 44 
C 11.796875 44 3 34.125 3 21.296875 
C 3 9.046875 12.09375 -1 23.59375 -1 
C 28.09375 -1 33.59375 0.296875 38.59375 3.890625 
C 38.59375 4.296875 38.40625 6.46875 38.296875 6.578125 
C 38.296875 6.765625 38 9.828125 38 10.234375 
C 33.203125 6.375 27.703125 5.09375 23.703125 5.09375 
C 17.296875 5.09375 10.40625 10.421875 10.09375 21.484375 
z
M 10.90625 27 
C 12.203125 32.59375 16.59375 37.890625 22.203125 37.890625 
C 23.703125 37.890625 30.703125 37.6875 32.5 27 
z
" id="CMSS17-101"/>
      <path d="M 16.703125 37.1875 
L 29.703125 37.1875 
L 29.703125 43 
L 16.703125 43 
L 16.703125 55 
L 9.59375 55 
L 9.59375 43 
L 1.703125 43 
L 1.703125 37.1875 
L 9.40625 37.1875 
L 9.40625 11.734375 
C 9.40625 6 10.703125 -1 17.296875 -1 
C 22.296875 -1 26.90625 0.390625 31.296875 2.6875 
L 29.703125 8.609375 
C 27.296875 6.5 24.40625 5.296875 21.296875 5.296875 
C 16.90625 5.296875 16.703125 10.921875 16.703125 13.4375 
z
" id="CMSS17-116"/>
     </defs>
     <g style="fill:#262626;" transform="translate(212.720152 310.855421)scale(0.12 -0.12)">
      <use transform="scale(0.996264)" xlink:href="#CMSS17-98"/>
      <use transform="translate(48.204943 0)scale(0.996264)" xlink:href="#CMSS17-117"/>
      <use transform="translate(96.409886 0)scale(0.996264)" xlink:href="#CMSS17-100"/>
      <use transform="translate(144.614829 0)scale(0.996264)" xlink:href="#CMSS17-103"/>
      <use transform="translate(191.458453 0)scale(0.996264)" xlink:href="#CMSS17-101"/>
      <use transform="translate(233.097275 0)scale(0.996264)" xlink:href="#CMSS17-116"/>
     </g>
    </g>
   </g>
   <g id="matplotlib.axis_2">
    <g id="ytick_1">
     <g id="line2d_5">
      <path clip-path="url(#p67bf0da7aa)" d="M 50.809319 269.311119 
L 407.929319 269.311119 
" style="fill:none;stroke:#ffffff;stroke-linecap:round;"/>
     </g>
     <g id="text_6">
      <!-- $3.25$ -->
      <defs>
       <path d="M 18.40625 4.796875 
C 18.40625 7.6875 16 9.6875 13.59375 9.6875 
C 10.703125 9.6875 8.703125 7.296875 8.703125 4.890625 
C 8.703125 2 11.09375 0 13.5 0 
C 16.40625 0 18.40625 2.390625 18.40625 4.796875 
z
" id="CMMI12-58"/>
       <path d="M 11.40625 58.59375 
C 12.40625 58.1875 16.5 56.890625 20.703125 56.890625 
C 30 56.890625 35.09375 61.890625 38 64.6875 
C 38 65.484375 38 66 37.40625 66 
C 37.296875 66 37.09375 66 36.296875 65.59375 
C 32.796875 64.09375 28.703125 63 23.703125 63 
C 20.703125 63 16.203125 63.359375 11.296875 65.484375 
C 10.203125 66 10 66 9.90625 66 
C 9.40625 66 9.296875 65.890625 9.296875 63.90625 
L 9.296875 34.859375 
C 9.296875 33.015625 9.296875 32.5 10.296875 32.5 
C 10.796875 32.5 11 32.703125 11.5 33.421875 
C 14.703125 38.046875 19.09375 40 24.09375 40 
C 27.59375 40 35.09375 37.734375 35.09375 20.203125 
C 35.09375 16.984375 35.09375 11.1875 32.09375 6.59375 
C 29.59375 2.484375 25.703125 0.390625 21.40625 0.390625 
C 14.796875 0.390625 8.09375 4.984375 6.296875 12.6875 
C 6.703125 12.59375 7.5 12.390625 7.90625 12.390625 
C 9.203125 12.390625 11.703125 13.09375 11.703125 16.1875 
C 11.703125 18.890625 9.796875 20 7.90625 20 
C 5.59375 20 4.09375 18.59375 4.09375 15.796875 
C 4.09375 7.09375 11 -2 21.59375 -2 
C 31.90625 -2 41.703125 6.890625 41.703125 19.796875 
C 41.703125 32.09375 33.90625 41.59375 24.203125 41.59375 
C 19.09375 41.59375 14.796875 39.6875 11.40625 36 
z
" id="CMR17-53"/>
      </defs>
      <g style="fill:#262626;" transform="translate(21.826776 273.116293)scale(0.11 -0.11)">
       <use transform="scale(0.996264)" xlink:href="#CMR17-51"/>
       <use transform="translate(45.690477 0)scale(0.996264)" xlink:href="#CMMI12-58"/>
       <use transform="translate(72.787654 0)scale(0.996264)" xlink:href="#CMR17-50"/>
       <use transform="translate(118.478131 0)scale(0.996264)" xlink:href="#CMR17-53"/>
      </g>
     </g>
    </g>
    <g id="ytick_2">
     <g id="line2d_6">
      <path clip-path="url(#p67bf0da7aa)" d="M 50.809319 233.033899 
L 407.929319 233.033899 
" style="fill:none;stroke:#ffffff;stroke-linecap:round;"/>
     </g>
     <g id="text_7">
      <!-- $3.50$ -->
      <g style="fill:#262626;" transform="translate(21.826776 236.839073)scale(0.11 -0.11)">
       <use transform="scale(0.996264)" xlink:href="#CMR17-51"/>
       <use transform="translate(45.690477 0)scale(0.996264)" xlink:href="#CMMI12-58"/>
       <use transform="translate(72.787654 0)scale(0.996264)" xlink:href="#CMR17-53"/>
       <use transform="translate(118.478131 0)scale(0.996264)" xlink:href="#CMR17-48"/>
      </g>
     </g>
    </g>
    <g id="ytick_3">
     <g id="line2d_7">
      <path clip-path="url(#p67bf0da7aa)" d="M 50.809319 196.756679 
L 407.929319 196.756679 
" style="fill:none;stroke:#ffffff;stroke-linecap:round;"/>
     </g>
     <g id="text_8">
      <!-- $3.75$ -->
      <defs>
       <path d="M 45.09375 61.796875 
L 45.09375 64 
L 21.59375 64 
C 9.90625 64 9.703125 65.09375 9.296875 67 
L 7.5 67 
L 4.59375 48.5 
L 6.40625 48.5 
C 6.703125 50.40625 7.40625 55.5 8.59375 57.390625 
C 9.203125 58.1875 16.59375 58.1875 18.296875 58.1875 
L 40.296875 58.1875 
L 29.203125 41.71875 
C 21.796875 30.640625 16.703125 15.671875 16.703125 2.59375 
C 16.703125 1.390625 16.703125 -2 20.296875 -2 
C 23.90625 -2 23.90625 1.390625 23.90625 2.6875 
L 23.90625 7.28125 
C 23.90625 23.65625 26.703125 34.4375 31.296875 41.3125 
z
" id="CMR17-55"/>
      </defs>
      <g style="fill:#262626;" transform="translate(21.826776 200.561853)scale(0.11 -0.11)">
       <use transform="scale(0.996264)" xlink:href="#CMR17-51"/>
       <use transform="translate(45.690477 0)scale(0.996264)" xlink:href="#CMMI12-58"/>
       <use transform="translate(72.787654 0)scale(0.996264)" xlink:href="#CMR17-55"/>
       <use transform="translate(118.478131 0)scale(0.996264)" xlink:href="#CMR17-53"/>
      </g>
     </g>
    </g>
    <g id="ytick_4">
     <g id="line2d_8">
      <path clip-path="url(#p67bf0da7aa)" d="M 50.809319 160.479459 
L 407.929319 160.479459 
" style="fill:none;stroke:#ffffff;stroke-linecap:round;"/>
     </g>
     <g id="text_9">
      <!-- $4.00$ -->
      <g style="fill:#262626;" transform="translate(21.826776 164.284633)scale(0.11 -0.11)">
       <use transform="scale(0.996264)" xlink:href="#CMR17-52"/>
       <use transform="translate(45.690477 0)scale(0.996264)" xlink:href="#CMMI12-58"/>
       <use transform="translate(72.787654 0)scale(0.996264)" xlink:href="#CMR17-48"/>
       <use transform="translate(118.478131 0)scale(0.996264)" xlink:href="#CMR17-48"/>
      </g>
     </g>
    </g>
    <g id="ytick_5">
     <g id="line2d_9">
      <path clip-path="url(#p67bf0da7aa)" d="M 50.809319 124.20224 
L 407.929319 124.20224 
" style="fill:none;stroke:#ffffff;stroke-linecap:round;"/>
     </g>
     <g id="text_10">
      <!-- $4.25$ -->
      <g style="fill:#262626;" transform="translate(21.826776 128.007413)scale(0.11 -0.11)">
       <use transform="scale(0.996264)" xlink:href="#CMR17-52"/>
       <use transform="translate(45.690477 0)scale(0.996264)" xlink:href="#CMMI12-58"/>
       <use transform="translate(72.787654 0)scale(0.996264)" xlink:href="#CMR17-50"/>
       <use transform="translate(118.478131 0)scale(0.996264)" xlink:href="#CMR17-53"/>
      </g>
     </g>
    </g>
    <g id="ytick_6">
     <g id="line2d_10">
      <path clip-path="url(#p67bf0da7aa)" d="M 50.809319 87.92502 
L 407.929319 87.92502 
" style="fill:none;stroke:#ffffff;stroke-linecap:round;"/>
     </g>
     <g id="text_11">
      <!-- $4.50$ -->
      <g style="fill:#262626;" transform="translate(21.826776 91.730193)scale(0.11 -0.11)">
       <use transform="scale(0.996264)" xlink:href="#CMR17-52"/>
       <use transform="translate(45.690477 0)scale(0.996264)" xlink:href="#CMMI12-58"/>
       <use transform="translate(72.787654 0)scale(0.996264)" xlink:href="#CMR17-53"/>
       <use transform="translate(118.478131 0)scale(0.996264)" xlink:href="#CMR17-48"/>
      </g>
     </g>
    </g>
    <g id="ytick_7">
     <g id="line2d_11">
      <path clip-path="url(#p67bf0da7aa)" d="M 50.809319 51.6478 
L 407.929319 51.6478 
" style="fill:none;stroke:#ffffff;stroke-linecap:round;"/>
     </g>
     <g id="text_12">
      <!-- $4.75$ -->
      <g style="fill:#262626;" transform="translate(21.826776 55.452973)scale(0.11 -0.11)">
       <use transform="scale(0.996264)" xlink:href="#CMR17-52"/>
       <use transform="translate(45.690477 0)scale(0.996264)" xlink:href="#CMMI12-58"/>
       <use transform="translate(72.787654 0)scale(0.996264)" xlink:href="#CMR17-55"/>
       <use transform="translate(118.478131 0)scale(0.996264)" xlink:href="#CMR17-53"/>
      </g>
     </g>
    </g>
    <g id="ytick_8">
     <g id="line2d_12">
      <path clip-path="url(#p67bf0da7aa)" d="M 50.809319 15.37058 
L 407.929319 15.37058 
" style="fill:none;stroke:#ffffff;stroke-linecap:round;"/>
     </g>
     <g id="text_13">
      <!-- $5.00$ -->
      <g style="fill:#262626;" transform="translate(21.826776 19.175753)scale(0.11 -0.11)">
       <use transform="scale(0.996264)" xlink:href="#CMR17-53"/>
       <use transform="translate(45.690477 0)scale(0.996264)" xlink:href="#CMMI12-58"/>
       <use transform="translate(72.787654 0)scale(0.996264)" xlink:href="#CMR17-48"/>
       <use transform="translate(118.478131 0)scale(0.996264)" xlink:href="#CMR17-48"/>
      </g>
     </g>
    </g>
    <g id="text_14">
     <!-- return -->
     <defs>
      <path d="M 14.90625 21.390625 
C 14.90625 30.84375 21.796875 37.171875 30.59375 37.375 
L 30.59375 44 
C 24.203125 43.890625 18.203125 40.6875 14.59375 35.46875 
L 14.59375 43.484375 
L 7.5 43.484375 
L 7.5 0 
L 14.90625 0 
z
" id="CMSS17-114"/>
      <path d="M 40.90625 29.34375 
C 40.90625 35.671875 39.40625 44 28.09375 44 
C 21.703125 44 17.5 40.6875 14.703125 37.28125 
L 14.703125 43.484375 
L 7.40625 43.484375 
L 7.40625 0 
L 15 0 
L 15 24.3125 
C 15 30.65625 17.40625 37.890625 24.203125 37.890625 
C 33 37.890625 33.296875 31.953125 33.296875 28.53125 
L 33.296875 0 
L 40.90625 0 
z
" id="CMSS17-110"/>
     </defs>
     <g style="fill:#262626;" transform="translate(15.50218 160.954178)rotate(-90)scale(0.12 -0.12)">
      <use transform="scale(0.996264)" xlink:href="#CMSS17-114"/>
      <use transform="translate(31.909773 0)scale(0.996264)" xlink:href="#CMSS17-101"/>
      <use transform="translate(73.548595 0)scale(0.996264)" xlink:href="#CMSS17-116"/>
      <use transform="translate(107.380161 0)scale(0.996264)" xlink:href="#CMSS17-117"/>
      <use transform="translate(155.585104 0)scale(0.996264)" xlink:href="#CMSS17-114"/>
      <use transform="translate(187.494877 0)scale(0.996264)" xlink:href="#CMSS17-110"/>
     </g>
    </g>
   </g>
   <g id="PolyCollection_1">
    <defs>
     <path d="M 67.042046 -221.729042 
L 67.042046 -155.178867 
L 79.372789 -149.528548 
L 91.98081 -158.271545 
L 104.098406 -211.822859 
L 120.216315 -283.248556 
L 133.356401 -284.112644 
L 148.009594 -288.907772 
L 161.108723 -288.194036 
L 175.260228 -289.378756 
L 188.663228 -289.297877 
L 202.095444 -290.158847 
L 215.616087 -289.848575 
L 229.335456 -289.978413 
L 242.818902 -290.309425 
L 256.395329 -290.001173 
L 269.89506 -289.989677 
L 283.47841 -289.906233 
L 296.987302 -290.967655 
L 310.52557 -290.512657 
L 324.052821 -290.940385 
L 337.583374 -290.955115 
L 351.104017 -290.631493 
L 364.638592 -290.92993 
L 378.163414 -291.001923 
L 391.696592 -290.447445 
L 391.696592 -294.841324 
L 391.696592 -294.841324 
L 378.163414 -295.025925 
L 364.638592 -294.896243 
L 351.104017 -294.587929 
L 337.583374 -295.084017 
L 324.052821 -294.859235 
L 310.52557 -294.435279 
L 296.987302 -294.81128 
L 283.47841 -293.968243 
L 269.89506 -293.608588 
L 256.395329 -293.962868 
L 242.818902 -293.958079 
L 229.335456 -293.69207 
L 215.616087 -293.697059 
L 202.095444 -293.984089 
L 188.663228 -293.517818 
L 175.260228 -293.443747 
L 161.108723 -292.734871 
L 148.009594 -293.705856 
L 133.356401 -291.974982 
L 120.216315 -291.311188 
L 104.098406 -269.774602 
L 91.98081 -218.714276 
L 79.372789 -216.494787 
L 67.042046 -221.729042 
z
" id="mf4eeda76c9" style="stroke:#4c72b0;stroke-opacity:0.2;"/>
    </defs>
    <g clip-path="url(#p67bf0da7aa)">
     <use style="fill:#4c72b0;fill-opacity:0.2;stroke:#4c72b0;stroke-opacity:0.2;" x="0" xlink:href="#mf4eeda76c9" y="320.380017"/>
    </g>
   </g>
   <g id="PolyCollection_2">
    <defs>
     <path d="M 67.042046 -165.579903 
L 67.042046 -116.959465 
L 79.372789 -104.676634 
L 91.98081 -106.349109 
L 104.098406 -126.115435 
L 120.216315 -133.073902 
L 133.356401 -155.811628 
L 148.009594 -184.699666 
L 161.108723 -211.538968 
L 175.260228 -274.852591 
L 188.663228 -278.580311 
L 202.095444 -288.872181 
L 215.616087 -288.586245 
L 229.335456 -285.088805 
L 242.818902 -286.016413 
L 256.395329 -289.063292 
L 269.89506 -288.839212 
L 283.47841 -288.899388 
L 296.987302 -288.996132 
L 310.52557 -289.955644 
L 324.052821 -289.742248 
L 337.583374 -290.00514 
L 351.104017 -289.992107 
L 364.638592 -289.709713 
L 378.163414 -290.831881 
L 391.696592 -289.929171 
L 391.696592 -294.186371 
L 391.696592 -294.186371 
L 378.163414 -294.931577 
L 364.638592 -293.968244 
L 351.104017 -293.991426 
L 337.583374 -293.802969 
L 324.052821 -293.413072 
L 310.52557 -293.764554 
L 296.987302 -293.226373 
L 283.47841 -293.377919 
L 269.89506 -292.910098 
L 256.395329 -293.272965 
L 242.818902 -294.499837 
L 229.335456 -293.055308 
L 215.616087 -292.696127 
L 202.095444 -293.029614 
L 188.663228 -293.27115 
L 175.260228 -289.818404 
L 161.108723 -260.152927 
L 148.009594 -235.91568 
L 133.356401 -207.943687 
L 120.216315 -184.95829 
L 104.098406 -160.4309 
L 91.98081 -142.531073 
L 79.372789 -154.375425 
L 67.042046 -165.579903 
z
" id="me8a556048f" style="stroke:#dd8452;stroke-opacity:0.2;"/>
    </defs>
    <g clip-path="url(#p67bf0da7aa)">
     <use style="fill:#dd8452;fill-opacity:0.2;stroke:#dd8452;stroke-opacity:0.2;" x="0" xlink:href="#me8a556048f" y="320.380017"/>
    </g>
   </g>
   <g id="PolyCollection_3">
    <defs>
     <path d="M 67.042046 -164.93892 
L 67.042046 -118.57223 
L 79.372789 -105.847985 
L 91.98081 -99.835745 
L 104.098406 -130.169281 
L 120.216315 -167.822653 
L 133.356401 -220.244136 
L 148.009594 -276.849086 
L 161.108723 -279.829406 
L 175.260228 -288.377776 
L 188.663228 -289.130258 
L 202.095444 -288.969169 
L 215.616087 -288.113839 
L 229.335456 -285.073937 
L 242.818902 -284.766306 
L 256.395329 -289.922267 
L 269.89506 -289.765851 
L 283.47841 -289.683633 
L 296.987302 -290.306038 
L 310.52557 -290.028666 
L 324.052821 -290.183077 
L 337.583374 -290.217999 
L 351.104017 -289.500815 
L 364.638592 -290.004252 
L 378.163414 -289.616395 
L 391.696592 -289.92701 
L 391.696592 -294.004381 
L 391.696592 -294.004381 
L 378.163414 -293.479102 
L 364.638592 -294.09774 
L 351.104017 -293.504082 
L 337.583374 -294.158082 
L 324.052821 -294.077103 
L 310.52557 -293.846939 
L 296.987302 -294.146223 
L 283.47841 -293.646553 
L 269.89506 -293.627297 
L 256.395329 -293.55818 
L 242.818902 -293.438303 
L 229.335456 -293.347732 
L 215.616087 -292.290259 
L 202.095444 -293.37806 
L 188.663228 -293.950013 
L 175.260228 -293.153419 
L 161.108723 -294.406749 
L 148.009594 -290.512205 
L 133.356401 -277.602981 
L 120.216315 -226.889323 
L 104.098406 -169.225527 
L 91.98081 -137.947559 
L 79.372789 -154.521867 
L 67.042046 -164.93892 
z
" id="med764c519d" style="stroke:#55a868;stroke-opacity:0.2;"/>
    </defs>
    <g clip-path="url(#p67bf0da7aa)">
     <use style="fill:#55a868;fill-opacity:0.2;stroke:#55a868;stroke-opacity:0.2;" x="0" xlink:href="#med764c519d" y="320.380017"/>
    </g>
   </g>
   <g id="PolyCollection_4">
    <defs>
     <path d="M 67.042046 -178.851339 
L 67.042046 -119.745272 
L 79.372789 -125.432425 
L 91.98081 -119.043412 
L 104.098406 -119.811106 
L 120.216315 -120.628332 
L 133.356401 -123.112505 
L 148.009594 -121.392457 
L 161.108723 -142.019111 
L 175.260228 -172.077453 
L 188.663228 -171.478652 
L 202.095444 -168.239564 
L 215.616087 -171.943027 
L 229.335456 -172.834839 
L 242.818902 -168.617276 
L 256.395329 -170.621015 
L 269.89506 -213.007773 
L 283.47841 -270.880289 
L 296.987302 -269.594545 
L 310.52557 -276.946234 
L 324.052821 -276.517648 
L 337.583374 -282.828003 
L 351.104017 -281.513696 
L 364.638592 -283.47636 
L 378.163414 -283.522266 
L 391.696592 -282.459795 
L 391.696592 -291.962567 
L 391.696592 -291.962567 
L 378.163414 -292.273345 
L 364.638592 -291.639331 
L 351.104017 -290.621501 
L 337.583374 -291.057803 
L 324.052821 -288.910494 
L 310.52557 -289.303306 
L 296.987302 -286.246265 
L 283.47841 -286.641382 
L 269.89506 -262.499698 
L 256.395329 -218.977937 
L 242.818902 -216.859166 
L 229.335456 -220.08179 
L 215.616087 -218.014472 
L 202.095444 -216.944018 
L 188.663228 -220.779008 
L 175.260228 -224.170837 
L 161.108723 -177.697936 
L 148.009594 -157.633856 
L 133.356401 -147.372822 
L 120.216315 -145.546694 
L 104.098406 -162.052249 
L 91.98081 -165.100129 
L 79.372789 -181.298184 
L 67.042046 -178.851339 
z
" id="m04c9cb3682" style="stroke:#c44e52;stroke-opacity:0.2;"/>
    </defs>
    <g clip-path="url(#p67bf0da7aa)">
     <use style="fill:#c44e52;fill-opacity:0.2;stroke:#c44e52;stroke-opacity:0.2;" x="0" xlink:href="#m04c9cb3682" y="320.380017"/>
    </g>
   </g>
   <g id="PolyCollection_5">
    <defs>
     <path d="M 67.042046 -102.937799 
L 67.042046 -55.073496 
L 91.98081 -53.411738 
L 120.216315 -53.164017 
L 148.009594 -53.723653 
L 175.260228 -54.984177 
L 202.095444 -57.197902 
L 229.335456 -55.419902 
L 256.395329 -55.843172 
L 283.47841 -57.416515 
L 310.52557 -54.280453 
L 337.583374 -55.226434 
L 364.638592 -55.182863 
L 391.696592 -54.891337 
L 391.696592 -102.848067 
L 391.696592 -102.848067 
L 364.638592 -104.223167 
L 337.583374 -104.180444 
L 310.52557 -102.121768 
L 283.47841 -103.965188 
L 256.395329 -103.125941 
L 229.335456 -103.254062 
L 202.095444 -102.584825 
L 175.260228 -103.127799 
L 148.009594 -102.067724 
L 120.216315 -104.693491 
L 91.98081 -103.614354 
L 67.042046 -102.937799 
z
" id="mcf76e0d538" style="stroke:#8172b3;stroke-opacity:0.2;"/>
    </defs>
    <g clip-path="url(#p67bf0da7aa)">
     <use style="fill:#8172b3;fill-opacity:0.2;stroke:#8172b3;stroke-opacity:0.2;" x="0" xlink:href="#mcf76e0d538" y="320.380017"/>
    </g>
   </g>
   <g id="line2d_13">
    <path clip-path="url(#p67bf0da7aa)" d="M 67.042046 130.288954 
L 79.372789 134.63077 
L 91.98081 132.484682 
L 104.098406 79.066057 
L 120.216315 32.653709 
L 133.356401 31.835178 
L 148.009594 28.970559 
L 161.108723 29.819031 
L 175.260228 29.025086 
L 188.663228 28.840087 
L 202.095444 28.308681 
L 215.616087 28.555265 
L 229.335456 28.427015 
L 242.818902 28.206974 
L 256.395329 28.348872 
L 269.89506 28.650554 
L 283.47841 28.397244 
L 296.987302 27.488602 
L 310.52557 27.835575 
L 324.052821 27.422359 
L 337.583374 27.396792 
L 351.104017 27.773216 
L 364.638592 27.524469 
L 378.163414 27.366071 
L 391.696592 27.620077 
" style="fill:none;stroke:#4c72b0;stroke-linecap:round;stroke-width:1.5;"/>
   </g>
   <g id="line2d_14">
    <path clip-path="url(#p67bf0da7aa)" d="M 67.042046 177.700109 
L 79.372789 188.828566 
L 91.98081 196.890492 
L 104.098406 177.114627 
L 120.216315 161.505884 
L 133.356401 138.099521 
L 148.009594 109.089766 
L 161.108723 83.440399 
L 175.260228 37.448332 
L 188.663228 33.811488 
L 202.095444 29.329514 
L 215.616087 29.580755 
L 229.335456 30.681707 
L 242.818902 29.304679 
L 256.395329 29.01589 
L 269.89506 29.342281 
L 283.47841 29.168664 
L 296.987302 29.316488 
L 310.52557 28.694071 
L 324.052821 28.750266 
L 337.583374 28.481397 
L 351.104017 28.361716 
L 364.638592 28.400708 
L 378.163414 27.38292 
L 391.696592 28.267038 
" style="fill:none;stroke:#dd8452;stroke-linecap:round;stroke-width:1.5;"/>
   </g>
   <g id="line2d_15">
    <path clip-path="url(#p67bf0da7aa)" d="M 67.042046 177.244834 
L 79.372789 188.704788 
L 91.98081 203.526552 
L 104.098406 170.892485 
L 120.216315 121.22195 
L 133.356401 69.892581 
L 148.009594 36.212061 
L 161.108723 32.675443 
L 175.260228 29.399299 
L 188.663228 28.775577 
L 202.095444 29.012193 
L 215.616087 30.050061 
L 229.335456 30.453142 
L 242.818902 30.452009 
L 256.395329 28.679795 
L 269.89506 28.636601 
L 283.47841 28.727258 
L 296.987302 28.194795 
L 310.52557 28.426333 
L 324.052821 28.23378 
L 337.583374 28.214491 
L 351.104017 28.787312 
L 364.638592 28.381045 
L 378.163414 28.714346 
L 391.696592 28.312484 
" style="fill:none;stroke:#55a868;stroke-linecap:round;stroke-width:1.5;"/>
   </g>
   <g id="line2d_16">
    <path clip-path="url(#p67bf0da7aa)" d="M 67.042046 169.42026 
L 79.372789 165.404995 
L 91.98081 177.815341 
L 104.098406 179.186313 
L 120.216315 186.555834 
L 133.356401 184.666549 
L 148.009594 180.229834 
L 161.108723 160.348747 
L 175.260228 123.192321 
L 188.663228 123.724361 
L 202.095444 127.748993 
L 215.616087 125.75231 
L 229.335456 123.211798 
L 242.818902 127.440221 
L 256.395329 123.642136 
L 269.89506 80.333704 
L 283.47841 41.214236 
L 296.987302 41.499577 
L 310.52557 36.978806 
L 324.052821 37.191506 
L 337.583374 33.280225 
L 351.104017 33.903156 
L 364.638592 32.435935 
L 378.163414 31.915919 
L 391.696592 32.577779 
" style="fill:none;stroke:#c44e52;stroke-linecap:round;stroke-width:1.5;"/>
   </g>
   <g id="line2d_17">
    <path clip-path="url(#p67bf0da7aa)" d="M 67.042046 239.782296 
L 91.98081 239.782296 
L 120.216315 239.782296 
L 148.009594 239.782296 
L 175.260228 239.782296 
L 202.095444 239.782296 
L 229.335456 239.782296 
L 256.395329 239.782296 
L 283.47841 239.782296 
L 310.52557 239.782296 
L 337.583374 239.782296 
L 364.638592 239.782296 
L 391.696592 239.782296 
" style="fill:none;stroke:#8172b3;stroke-linecap:round;stroke-width:1.5;"/>
   </g>
   <g id="line2d_18"/>
   <g id="line2d_19"/>
   <g id="line2d_20"/>
   <g id="line2d_21"/>
   <g id="line2d_22"/>
   <g id="line2d_23"/>
   <g id="patch_3">
    <path d="M 50.809319 279.312 
L 50.809319 13.2 
" style="fill:none;stroke:#ffffff;stroke-linecap:square;stroke-linejoin:miter;stroke-width:1.25;"/>
   </g>
   <g id="patch_4">
    <path d="M 407.929319 279.312 
L 407.929319 13.2 
" style="fill:none;stroke:#ffffff;stroke-linecap:square;stroke-linejoin:miter;stroke-width:1.25;"/>
   </g>
   <g id="patch_5">
    <path d="M 50.809319 279.312 
L 407.929319 279.312 
" style="fill:none;stroke:#ffffff;stroke-linecap:square;stroke-linejoin:miter;stroke-width:1.25;"/>
   </g>
   <g id="patch_6">
    <path d="M 50.809319 13.2 
L 407.929319 13.2 
" style="fill:none;stroke:#ffffff;stroke-linecap:square;stroke-linejoin:miter;stroke-width:1.25;"/>
   </g>
   <g id="legend_1">
    <g id="patch_7">
     <path d="M 310.752632 194.462689 
L 400.229319 194.462689 
Q 402.429319 194.462689 402.429319 192.262689 
L 402.429319 100.249311 
Q 402.429319 98.049311 400.229319 98.049311 
L 310.752632 98.049311 
Q 308.552632 98.049311 308.552632 100.249311 
L 308.552632 192.262689 
Q 308.552632 194.462689 310.752632 194.462689 
z
" style="fill:#eaeaf2;opacity:0.8;stroke:#cccccc;stroke-linejoin:miter;"/>
    </g>
    <g id="line2d_24">
     <path d="M 312.952632 106.299311 
L 334.952632 106.299311 
" style="fill:none;"/>
    </g>
    <g id="line2d_25"/>
    <g id="text_15">
     <!-- agent -->
     <defs>
      <path d="M 37.59375 27.953125 
C 37.59375 37.484375 30.90625 44 21.90625 44 
C 17.5 44 12.703125 43.1875 7.203125 39.984375 
L 7.796875 33.328125 
C 10.296875 35.15625 14.59375 38.09375 21.796875 38.09375 
C 26.90625 38.09375 30 34.140625 30 27.84375 
L 30 24 
C 14 23.5 4 18.890625 4 11.109375 
C 4 7.0625 6.5 -1 14.796875 -1 
C 16.296875 -1 24.40625 -0.8125 30.203125 3.5 
L 30.203125 -0.203125 
L 37.59375 -0.203125 
z
M 30 12.875 
C 30 11.109375 30 8.734375 27 6.96875 
C 24.40625 5.296875 21.09375 5.09375 19.703125 5.09375 
C 14.703125 5.09375 11.296875 7.859375 11.296875 11.296875 
C 11.296875 18.203125 26.90625 18.890625 30 19 
z
" id="CMSS17-97"/>
     </defs>
     <g style="fill:#262626;" transform="translate(343.752632 110.149311)scale(0.11 -0.11)">
      <use transform="scale(0.996264)" xlink:href="#CMSS17-97"/>
      <use transform="translate(44.921921 0)scale(0.996264)" xlink:href="#CMSS17-103"/>
      <use transform="translate(91.765544 0)scale(0.996264)" xlink:href="#CMSS17-101"/>
      <use transform="translate(133.404366 0)scale(0.996264)" xlink:href="#CMSS17-110"/>
      <use transform="translate(181.609309 0)scale(0.996264)" xlink:href="#CMSS17-116"/>
     </g>
    </g>
    <g id="line2d_26">
     <path d="M 312.952632 121.630206 
L 334.952632 121.630206 
" style="fill:none;stroke:#4c72b0;stroke-linecap:round;stroke-width:1.5;"/>
    </g>
    <g id="line2d_27"/>
    <g id="text_16">
     <!-- \texttt{OPD} -->
     <defs>
      <path d="M 45.90625 30.4375 
C 45.90625 59.296875 43.796875 62 25.703125 62 
C 7.59375 62 5.5 59.296875 5.5 30.546875 
C 5.5 1.6875 7.59375 -1 25.703125 -1 
C 43.796875 -1 45.90625 1.6875 45.90625 30.4375 
z
M 25.703125 4.796875 
C 16.59375 4.796875 14.40625 7.171875 13.296875 11.71875 
C 12 16.78125 12 25.6875 12 31.328125 
C 12 37.671875 12 44.703125 13.09375 49.453125 
C 14.5 54.90625 17.5 56.1875 25.703125 56.1875 
C 33.59375 56.1875 36.796875 55 38.203125 49.75 
C 39.40625 45.09375 39.40625 37.375 39.40625 31.328125 
C 39.40625 25.1875 39.40625 17.5625 38.296875 12.21875 
C 37.203125 7.171875 35 4.796875 25.703125 4.796875 
z
" id="CMTT12-79"/>
      <path d="M 16.09375 25 
L 28.5 25 
C 40.09375 25 47.09375 34.15625 47.09375 42.9375 
C 47.09375 52.125 39.90625 61 28.5 61 
L 6.90625 61 
C 5.5 61 2.796875 61 2.796875 58.09375 
C 2.796875 55.1875 5.5 55.1875 6.90625 55.1875 
L 9.59375 55.1875 
L 9.59375 5.796875 
L 6.90625 5.796875 
C 5.5 5.796875 2.796875 5.796875 2.796875 2.890625 
C 2.796875 0 5.5 0 6.90625 0 
L 18.796875 0 
C 20.203125 0 22.90625 0 22.90625 2.890625 
C 22.90625 5.796875 20.203125 5.796875 18.796875 5.796875 
L 16.09375 5.796875 
z
M 16.09375 55.1875 
L 26.703125 55.1875 
C 36.296875 55.1875 40.59375 48.28125 40.59375 43.046875 
C 40.59375 37.40625 36.09375 30.796875 26.703125 30.796875 
L 16.09375 30.796875 
z
" id="CMTT12-80"/>
      <path d="M 6.203125 61 
C 4.796875 61 2.203125 61 2.203125 58.09375 
C 2.203125 55.1875 4.796875 55.1875 6.203125 55.1875 
L 8.203125 55.1875 
L 8.203125 5.796875 
L 6.203125 5.796875 
C 4.796875 5.796875 2.203125 5.796875 2.203125 2.890625 
C 2.203125 0 4.796875 0 6.203125 0 
L 26.09375 0 
C 39 0 47.59375 14.171875 47.59375 29.9375 
C 47.59375 45.90625 39.296875 61 26 61 
z
M 14.703125 5.796875 
L 14.703125 55.1875 
L 24.203125 55.1875 
C 35.796875 55.1875 41.09375 41.421875 41.09375 30.046875 
C 41.09375 17.96875 35.203125 5.796875 24.296875 5.796875 
z
" id="CMTT12-68"/>
     </defs>
     <g style="fill:#262626;" transform="translate(343.752632 125.480206)scale(0.11 -0.11)">
      <use transform="scale(0.996264)" xlink:href="#CMTT12-79"/>
      <use transform="translate(51.266111 0)scale(0.996264)" xlink:href="#CMTT12-80"/>
      <use transform="translate(102.532222 0)scale(0.996264)" xlink:href="#CMTT12-68"/>
     </g>
    </g>
    <g id="line2d_28">
     <path d="M 312.952632 136.961101 
L 334.952632 136.961101 
" style="fill:none;stroke:#dd8452;stroke-linecap:round;stroke-width:1.5;"/>
    </g>
    <g id="line2d_29"/>
    <g id="text_17">
     <!-- \texttt{KL-OLOP} -->
     <defs>
      <path d="M 27.09375 35.734375 
L 42.40625 55.1875 
C 45.296875 55.1875 47.59375 55.1875 47.59375 58.09375 
C 47.59375 61 45 61 43.59375 61 
L 35.203125 61 
C 33.796875 61 31.203125 61 31.203125 58.09375 
C 31.203125 55.1875 33.796875 55.1875 35.203125 55.1875 
L 14.203125 28.453125 
L 14.203125 55.1875 
L 16.203125 55.1875 
C 17.59375 55.1875 20.203125 55.1875 20.203125 58.09375 
C 20.203125 61 17.59375 61 16.203125 61 
L 6.59375 61 
C 5.203125 61 2.59375 61 2.59375 58.09375 
C 2.59375 55.1875 5.203125 55.1875 6.59375 55.1875 
L 8.59375 55.1875 
L 8.59375 5.796875 
L 6.59375 5.796875 
C 5.203125 5.796875 2.59375 5.796875 2.59375 2.890625 
C 2.59375 0 5.203125 0 6.59375 0 
L 16.203125 0 
C 17.59375 0 20.203125 0 20.203125 2.890625 
C 20.203125 5.796875 17.59375 5.796875 16.203125 5.796875 
L 14.203125 5.796875 
L 14.203125 19.359375 
L 23.296875 30.9375 
L 37.203125 5.796875 
C 35.90625 5.796875 33.296875 5.796875 33.296875 2.890625 
C 33.296875 0 35.90625 0 37.296875 0 
L 44.5 0 
C 45.90625 0 48.5 0 48.5 2.890625 
C 48.5 5.796875 46.09375 5.796875 43.59375 5.796875 
z
" id="CMTT12-75"/>
      <path d="M 17.296875 55.1875 
L 22.5 55.1875 
C 23.90625 55.1875 26.5 55.1875 26.5 58.09375 
C 26.5 61 23.90625 61 22.5 61 
L 7.5 61 
C 6.09375 61 3.40625 61 3.40625 58.09375 
C 3.40625 55.1875 6.09375 55.1875 7.5 55.1875 
L 10.796875 55.1875 
L 10.796875 5.796875 
L 7.5 5.796875 
C 6.09375 5.796875 3.40625 5.796875 3.40625 2.890625 
C 3.40625 0 6.09375 0 7.5 0 
L 43.90625 0 
C 47.203125 0 47.90625 0.890625 47.90625 4.09375 
L 47.90625 12.28125 
C 47.90625 13.96875 47.90625 16.265625 44.703125 16.265625 
C 41.40625 16.265625 41.40625 14.078125 41.40625 12.28125 
L 41.40625 5.796875 
L 17.296875 5.796875 
z
" id="CMTT12-76"/>
      <path d="M 41.40625 27.484375 
C 42.703125 27.484375 45.90625 27.484375 45.90625 30.6875 
C 45.90625 34 42.796875 34 41.40625 34 
L 10 34 
C 8.703125 34 5.5 34 5.5 30.796875 
C 5.5 27.484375 8.59375 27.484375 10 27.484375 
z
" id="CMTT12-45"/>
     </defs>
     <g style="fill:#262626;" transform="translate(343.752632 140.811101)scale(0.11 -0.11)">
      <use transform="scale(0.996264)" xlink:href="#CMTT12-75"/>
      <use transform="translate(51.266111 0)scale(0.996264)" xlink:href="#CMTT12-76"/>
      <use transform="translate(102.532222 0)scale(0.996264)" xlink:href="#CMTT12-45"/>
      <use transform="translate(153.798333 0)scale(0.996264)" xlink:href="#CMTT12-79"/>
      <use transform="translate(205.064443 0)scale(0.996264)" xlink:href="#CMTT12-76"/>
      <use transform="translate(256.330554 0)scale(0.996264)" xlink:href="#CMTT12-79"/>
      <use transform="translate(307.596665 0)scale(0.996264)" xlink:href="#CMTT12-80"/>
     </g>
    </g>
    <g id="line2d_30">
     <path d="M 312.952632 152.811173 
L 334.952632 152.811173 
" style="fill:none;stroke:#55a868;stroke-linecap:round;stroke-width:1.5;"/>
    </g>
    <g id="line2d_31"/>
    <g id="text_18">
     <!-- \texttt{KL-OLOP}(1) -->
     <defs>
      <path d="M 25.203125 75 
C 19.796875 69.484375 7.40625 56.671875 7.40625 25.046875 
C 7.40625 -6.6875 19.796875 -19.40625 25.203125 -25 
L 31.296875 -25 
C 19 -12.203125 15 5.71875 15 24.9375 
C 15 44.0625 18.796875 62.078125 31.296875 75 
z
" id="CMSS17-40"/>
      <path d="M 28.40625 67 
L 26.5 67 
C 21.09375 61.703125 14.796875 60.96875 8.40625 60.796875 
L 8.40625 55 
C 11.296875 55.09375 16 55.296875 20.703125 57.390625 
L 20.703125 5.796875 
L 8.90625 5.796875 
L 8.90625 0 
L 40.203125 0 
L 40.203125 5.796875 
L 28.40625 5.796875 
z
" id="CMSS17-49"/>
      <path d="M 11.296875 -25 
C 16.703125 -19.5 29.09375 -6.6875 29.09375 24.9375 
C 29.09375 56.671875 16.703125 69.375 11.296875 75 
L 5.203125 75 
C 17.5 62.171875 21.5 44.265625 21.5 25.046875 
C 21.5 5.921875 17.703125 -12.09375 5.203125 -25 
z
" id="CMSS17-41"/>
     </defs>
     <g style="fill:#262626;" transform="translate(343.752632 156.661173)scale(0.11 -0.11)">
      <use transform="scale(0.996264)" xlink:href="#CMTT12-75"/>
      <use transform="translate(51.266111 0)scale(0.996264)" xlink:href="#CMTT12-76"/>
      <use transform="translate(102.532222 0)scale(0.996264)" xlink:href="#CMTT12-45"/>
      <use transform="translate(153.798333 0)scale(0.996264)" xlink:href="#CMTT12-79"/>
      <use transform="translate(205.064443 0)scale(0.996264)" xlink:href="#CMTT12-76"/>
      <use transform="translate(256.330554 0)scale(0.996264)" xlink:href="#CMTT12-79"/>
      <use transform="translate(307.596665 0)scale(0.996264)" xlink:href="#CMTT12-80"/>
      <use transform="translate(358.862776 0)scale(0.996264)" xlink:href="#CMSS17-40"/>
      <use transform="translate(395.29669 0)scale(0.996264)" xlink:href="#CMSS17-49"/>
      <use transform="translate(442.140314 0)scale(0.996264)" xlink:href="#CMSS17-41"/>
     </g>
    </g>
    <g id="line2d_32">
     <path d="M 312.952632 168.750899 
L 334.952632 168.750899 
" style="fill:none;stroke:#c44e52;stroke-linecap:round;stroke-width:1.5;"/>
    </g>
    <g id="line2d_33"/>
    <g id="text_19">
     <!-- \texttt{OLOP} -->
     <g style="fill:#262626;" transform="translate(343.752632 172.600899)scale(0.11 -0.11)">
      <use transform="scale(0.996264)" xlink:href="#CMTT12-79"/>
      <use transform="translate(51.266111 0)scale(0.996264)" xlink:href="#CMTT12-76"/>
      <use transform="translate(102.532222 0)scale(0.996264)" xlink:href="#CMTT12-79"/>
      <use transform="translate(153.798333 0)scale(0.996264)" xlink:href="#CMTT12-80"/>
     </g>
    </g>
    <g id="line2d_34">
     <path d="M 312.952632 184.081794 
L 334.952632 184.081794 
" style="fill:none;stroke:#8172b3;stroke-linecap:round;stroke-width:1.5;"/>
    </g>
    <g id="line2d_35"/>
    <g id="text_20">
     <!-- \texttt{Random} -->
     <defs>
      <path d="M 34 30.6875 
C 39.5 33.890625 42.5 39.1875 42.5 44.484375 
C 42.5 52.640625 35.203125 61 23.40625 61 
L 6.40625 61 
C 4.90625 61 2.40625 61 2.40625 58.09375 
C 2.40625 55.1875 5 55.1875 6.40625 55.1875 
L 8.59375 55.1875 
L 8.59375 5.796875 
L 6.40625 5.796875 
C 5 5.796875 2.40625 5.796875 2.40625 2.890625 
C 2.40625 0 4.90625 0 6.40625 0 
L 17.296875 0 
C 18.703125 0 21.40625 0 21.40625 2.890625 
C 21.40625 5.796875 18.703125 5.796875 17.296875 5.796875 
L 15.09375 5.796875 
L 15.09375 28 
L 23 28 
C 24.796875 28 27.90625 28 31.09375 25.1875 
C 33.40625 23.078125 33.40625 20.765625 33.40625 16.4375 
C 33.40625 9.40625 33.40625 6.5 35.296875 3.09375 
C 36.90625 0.5 39.5 -1 42.59375 -1 
C 49.203125 -1 51.203125 5.890625 51.203125 9.515625 
C 51.203125 11.515625 50.296875 12.828125 47.90625 12.828125 
C 44.90625 12.828125 44.703125 10.421875 44.703125 9.515625 
C 44.703125 8.8125 44.40625 4.796875 42.59375 4.796875 
C 39.90625 4.796875 39.90625 9.21875 39.90625 14.9375 
C 39.90625 21.765625 39.90625 22.375 38.90625 24.875 
C 37.59375 27.78125 35.203125 29.796875 34 30.6875 
z
M 22.40625 33.796875 
L 15.09375 33.796875 
L 15.09375 55.1875 
L 22.40625 55.1875 
C 31.59375 55.1875 36 49.296875 36 44.484375 
C 36 39.6875 31.59375 33.796875 22.40625 33.796875 
z
" id="CMTT12-82"/>
      <path d="M 41.40625 28.578125 
C 41.40625 36.03125 35.703125 44 22.203125 44 
C 18 44 8.296875 44 8.296875 37.109375 
C 8.296875 34.46875 10.203125 33 12.40625 33 
C 13 33 16.296875 33.1875 16.40625 37.3125 
C 16.40625 37.796875 16.5 37.890625 18.59375 38.09375 
C 19.796875 38.1875 21.09375 38.1875 22.296875 38.1875 
C 24.59375 38.1875 28 38.1875 31.296875 35.734375 
C 34.90625 33 34.90625 30.25 34.90625 27.390625 
C 29 27.1875 23.203125 26.796875 17 24.796875 
C 12 23.09375 5.59375 19.40625 5.59375 12.359375 
C 5.59375 5 11.90625 -1 21.203125 -1 
C 24.40625 -1 30.59375 -0.5 35.796875 3.09375 
C 37.796875 -0.203125 42.796875 -0.40625 46.59375 -0.40625 
C 49 -0.40625 51.40625 -0.40625 51.40625 2.5 
C 51.40625 5.421875 48.796875 5.421875 47.40625 5.421875 
C 44.796875 5.421875 42.796875 5.625 41.40625 6.25 
z
M 34.90625 13.078125 
C 34.90625 10.703125 34.90625 8.515625 30.796875 6.546875 
C 27.296875 4.796875 22.59375 4.796875 22.296875 4.796875 
C 16.40625 4.796875 12.09375 8.109375 12.09375 12.359375 
C 12.09375 18.46875 22.796875 22 34.90625 22 
z
" id="CMTT12-97"/>
      <path d="M 41.796875 29.515625 
C 41.796875 39.390625 37.203125 44 29 44 
C 22.203125 44 17.796875 40.1875 16.09375 38.296875 
C 16.09375 41.984375 16.09375 43.390625 12.09375 43.390625 
L 5.5 43.390625 
C 4.09375 43.390625 1.5 43.390625 1.5 40.484375 
C 1.5 37.59375 4.09375 37.59375 5.5 37.59375 
L 9.59375 37.59375 
L 9.59375 5.796875 
L 5.5 5.796875 
C 4.09375 5.796875 1.5 5.796875 1.5 2.890625 
C 1.5 0 4.09375 0 5.5 0 
L 20.203125 0 
C 21.59375 0 24.203125 0 24.203125 2.890625 
C 24.203125 5.796875 21.59375 5.796875 20.203125 5.796875 
L 16.09375 5.796875 
L 16.09375 24.0625 
C 16.09375 33.859375 22.90625 38.1875 28.296875 38.1875 
C 34.09375 38.1875 35.296875 34.859375 35.296875 29.109375 
L 35.296875 5.796875 
L 31.203125 5.796875 
C 29.796875 5.796875 27.203125 5.796875 27.203125 2.890625 
C 27.203125 0 29.796875 0 31.203125 0 
L 45.90625 0 
C 47.296875 0 49.90625 0 49.90625 2.890625 
C 49.90625 5.796875 47.296875 5.796875 45.90625 5.796875 
L 41.796875 5.796875 
z
" id="CMTT12-110"/>
      <path d="M 41.796875 56.890625 
C 41.796875 59.984375 41.203125 61 37.796875 61 
L 31.203125 61 
C 29.796875 61 27.203125 61 27.203125 58.09375 
C 27.203125 55.1875 29.796875 55.1875 31.203125 55.1875 
L 35.296875 55.1875 
L 35.296875 38.984375 
C 33.703125 40.59375 29.59375 44 23.5 44 
C 12.90625 44 3.703125 34.3125 3.703125 21.4375 
C 3.703125 8.875 12.296875 -1 22.59375 -1 
C 29.09375 -1 33.40625 2.890625 35.296875 5.09375 
C 35.296875 0.890625 35.296875 -0.40625 39.296875 -0.40625 
L 45.90625 -0.40625 
C 47.296875 -0.40625 49.90625 -0.40625 49.90625 2.5 
C 49.90625 5.40625 47.296875 5.40625 45.90625 5.40625 
L 41.796875 5.40625 
z
M 35.296875 18.890625 
C 35.296875 13.171875 30.703125 4.796875 23.203125 4.796875 
C 16 4.796875 10.203125 12.25 10.203125 21.4375 
C 10.203125 31.25 17 38.1875 24.09375 38.1875 
C 30.59375 38.1875 35.296875 32.171875 35.296875 26.859375 
z
" id="CMTT12-100"/>
      <path d="M 45.59375 21.390625 
C 45.59375 34.046875 36.5 44 25.703125 44 
C 14.90625 44 5.796875 34.046875 5.796875 21.390625 
C 5.796875 8.640625 15 -1 25.703125 -1 
C 36.40625 -1 45.59375 8.640625 45.59375 21.390625 
z
M 25.703125 4.796875 
C 18.5 4.796875 12.296875 12.484375 12.296875 22.09375 
C 12.296875 31.515625 18.703125 38.1875 25.703125 38.1875 
C 32.703125 38.1875 39.09375 31.515625 39.09375 22.09375 
C 39.09375 12.390625 32.90625 4.796875 25.703125 4.796875 
z
" id="CMTT12-111"/>
      <path d="M 45.296875 30.515625 
C 45.296875 32.75 45.296875 44 36.5 44 
C 33 44 29.59375 42.390625 26.90625 38.6875 
C 26.296875 40.1875 24.09375 44 19.296875 44 
C 14.796875 44 11.703125 41.09375 10.90625 40.1875 
C 10.796875 43.390625 8.703125 43.390625 6.90625 43.390625 
L 3.90625 43.390625 
C 2.5 43.390625 -0.109375 43.390625 -0.109375 40.484375 
C -0.109375 37.59375 2.203125 37.59375 5.296875 37.59375 
L 5.296875 5.796875 
C 2.09375 5.796875 -0.109375 5.796875 -0.109375 2.890625 
C -0.109375 0 2.5 0 3.90625 0 
L 12.296875 0 
C 13.703125 0 16.296875 0 16.296875 2.890625 
C 16.296875 5.796875 14 5.796875 10.90625 5.796875 
L 10.90625 24.359375 
C 10.90625 32.84375 14.5 38.1875 18.90625 38.1875 
C 21.703125 38.1875 22.5 34.65625 22.5 29.921875 
L 22.5 5.796875 
C 20.796875 5.796875 18.09375 5.796875 18.09375 2.890625 
C 18.09375 0 20.796875 0 22.203125 0 
L 29.5 0 
C 30.90625 0 33.5 0 33.5 2.890625 
C 33.5 5.796875 31.203125 5.796875 28.09375 5.796875 
L 28.09375 24.359375 
C 28.09375 32.84375 31.703125 38.1875 36.09375 38.1875 
C 38.90625 38.1875 39.703125 34.65625 39.703125 29.921875 
L 39.703125 5.796875 
C 38 5.796875 35.296875 5.796875 35.296875 2.890625 
C 35.296875 0 38 0 39.40625 0 
L 46.703125 0 
C 48.09375 0 50.703125 0 50.703125 2.890625 
C 50.703125 5.796875 48.40625 5.796875 45.296875 5.796875 
z
" id="CMTT12-109"/>
     </defs>
     <g style="fill:#262626;" transform="translate(343.752632 187.931794)scale(0.11 -0.11)">
      <use transform="scale(0.996264)" xlink:href="#CMTT12-82"/>
      <use transform="translate(51.266111 0)scale(0.996264)" xlink:href="#CMTT12-97"/>
      <use transform="translate(102.532222 0)scale(0.996264)" xlink:href="#CMTT12-110"/>
      <use transform="translate(153.798333 0)scale(0.996264)" xlink:href="#CMTT12-100"/>
      <use transform="translate(205.064443 0)scale(0.996264)" xlink:href="#CMTT12-111"/>
      <use transform="translate(256.330554 0)scale(0.996264)" xlink:href="#CMTT12-109"/>
     </g>
    </g>
   </g>
  </g>
 </g>
 <defs>
  <clipPath id="p67bf0da7aa">
   <rect height="266.112" width="357.12" x="50.809319" y="13.2"/>
  </clipPath>
 </defs>
</svg>
